<svg id="Layer_1" data-name="Layer 1" xmlns="http://www.w3.org/2000/svg" viewBox="0 0 841.89 595.28"><defs><style>.cls-1,.cls-2{fill:#1d1d1b;}.cls-2{font-size:136.93px;font-family:Arial-Black, Arial Black;font-weight:800;}</style></defs><path class="cls-1" d="M302.66,124.29l-70.4,117.63L162,124.29H42.33L178.14,326.94v56.45h108V326.94l75.71-113.16,59.87-89.49Z"/><path class="cls-1" d="M637,229.89Q628.47,198,609.44,174a124.47,124.47,0,0,0-48.17-36.87q-29.13-12.84-76.47-12.84H433.73l-53.18,79.49c27.38,0,54.78-1.52,82.15-.38,20.37.84,42.33,4.17,56.59,20.31q18.08,20.46,18.08,75.87,0,41.87-8.09,60.54t-22.35,26.16c-13.05,6.85-28.47,7.57-42.9,7.61-2.45,0-31.55-.23-31.55-.12v-.38H178.72V473H484.8q28.79,0,64.22-9.52,25.93-6.9,48.53-27.71t35.32-51.61q12.72-30.79,12.72-86.7A259.34,259.34,0,0,0,637,229.89Z"/><text class="cls-2" transform="translate(311.35 360.32)">&lt;/&gt;</text></svg>